<svg width="773" height="120" viewBox="0 0 773 120" fill="none" xmlns="http://www.w3.org/2000/svg">
<g clip-path="url(#clip0_6279_510)">
<path d="M76.21 0.000234375L119.45 75.6702C120.94 70.3802 121.75 64.7902 121.75 59.0102C121.75 30.6402 102.4 6.80023 76.21 -0.00976562V0.000234375Z" fill="#29293D"/>
<path d="M76.21 0.000234375L119.45 75.6702C120.94 70.3802 121.75 64.7902 121.75 59.0102C121.75 30.6402 102.4 6.80023 76.21 -0.00976562V0.000234375Z" fill="#29293D"/>
<path d="M60.8699 120C78.0199 120 93.5099 112.89 104.58 101.46H17.1699C28.2299 112.89 43.7299 120 60.8799 120H60.8699Z" fill="#29293D"/>
<path d="M60.8699 120C78.0199 120 93.5099 112.89 104.58 101.46H17.1699C28.2299 112.89 43.7299 120 60.8799 120H60.8699Z" fill="#29293D"/>
<path d="M0 59.03C0 64.81 0.8 70.39 2.3 75.69L45.54 0C19.34 6.82 0 30.66 0 59.03Z" fill="#29293D"/>
<path d="M0 59.03C0 64.81 0.8 70.39 2.3 75.69L45.54 0C19.34 6.82 0 30.66 0 59.03Z" fill="#29293D"/>
<path d="M89.8004 75.5699L60.8704 24.9399L31.9404 75.5699H89.8004Z" fill="#29293D"/>
<path d="M89.8004 75.5699L60.8704 24.9399L31.9404 75.5699H89.8004Z" fill="#29293D"/>
<path d="M190.9 8.75977H208.17L240.65 94.0698H222.06L215.95 76.7698H182.15L176.04 94.0698H158.55L190.9 8.75977ZM187.05 62.9998H211.03L199.05 29.3398L187.07 62.9998H187.05Z" fill="#29293D"/>
<path d="M284.121 86.76C280.461 93.3 273.491 96.76 265.591 96.76C250.371 96.76 244.211 87.36 244.211 71.66V31.21H260.511V68.09C260.511 76.65 261.811 83.56 270.901 83.56C281.751 83.56 284.131 74.64 284.131 64.53V31.21H300.431V95.21H284.131V86.76H284.111H284.121Z" fill="#29293D"/>
<path d="M314.751 13.25H331.001V30.5H344.171V41.72H331.001V74.58C331.001 81.07 333.241 82.38 339.011 82.38H343.961V94.08H332.061C317.461 94.08 314.751 89.6 314.751 76.94V41.72H305.801V30.5H314.751V13.25Z" fill="#29293D"/>
<path d="M345.961 63.5901C345.961 41.2701 361.901 30.3101 378.091 30.3101C394.281 30.3101 410.221 41.2901 410.221 63.5901C410.221 85.8901 394.281 96.7601 378.091 96.7601C361.901 96.7601 345.961 85.7801 345.961 63.5901ZM362.631 63.5901C362.631 77.1601 369.061 84.0101 378.111 84.0101C387.161 84.0101 393.581 77.1701 393.581 63.5901C393.581 50.0101 387.151 43.0601 378.111 43.0601C369.071 43.0601 362.631 50.0301 362.631 63.5901Z" fill="#29293D"/>
<path d="M434.67 39.9301C438.36 33.5601 445.25 30.3101 453.23 30.3101C468.81 30.3101 475.37 39.1301 475.37 54.7701V94.0701H458.95V58.2401C458.95 50.2501 457.17 43.1601 447.88 43.1601C437.06 43.1601 434.68 51.7401 434.68 61.6001V94.0701H418.26V31.7001H434.68V39.9301H434.67Z" fill="#29293D"/>
<path d="M482.5 63.5901C482.5 41.2701 498.44 30.3101 514.63 30.3101C530.82 30.3101 546.76 41.2901 546.76 63.5901C546.76 85.8901 530.82 96.7601 514.63 96.7601C498.44 96.7601 482.5 85.7801 482.5 63.5901ZM499.16 63.5901C499.16 77.1601 505.59 84.0101 514.63 84.0101C523.67 84.0101 530.1 77.1701 530.1 63.5901C530.1 50.0101 523.67 43.0601 514.63 43.0601C505.59 43.0601 499.16 50.0301 499.16 63.5901Z" fill="#29293D"/>
<path d="M633.089 57.7501C633.089 50.9101 632.489 43.1501 622.929 43.1501C611.929 43.1501 610.269 52.0801 610.269 61.5901V94.0601H593.939V57.7701C593.939 50.9301 593.339 43.1701 583.779 43.1701C572.779 43.1701 571.119 52.1001 571.119 61.6101V94.0801H554.789V31.7001H571.119V39.9301C574.789 33.7801 581.169 30.3101 588.859 30.3101C599.729 30.3101 604.459 35.8801 606.949 40.5101C612.029 33.5601 618.299 30.3101 627.869 30.3101C643.839 30.3101 649.389 40.0601 649.389 54.7701V94.0701H633.059V57.7801L633.079 57.7401L633.089 57.7501Z" fill="#29293D"/>
<path d="M658.82 115.62V103.08H664.85C670.19 103.08 672.51 103.08 675.31 96.4502L676 94.6802L652.07 31.2202H669.6L683.77 77.1602L698.29 31.2202H714.54L691.67 93.0202C684.23 112.8 681.1 115.63 665.54 115.63H658.81L658.82 115.62Z" fill="#29293D"/>
<path d="M756.09 51.0101C754.79 45.7101 750.09 41.9601 742.57 41.9601C736.57 41.9601 732.33 44.2001 732.33 48.0701C732.33 51.4801 734.79 54.0701 740.79 55.3601L749.25 57.2501C761.84 60.0601 772.55 63.2501 772.55 76.3001C772.55 89.3501 759.49 96.7601 745.14 96.7601C729.62 96.7601 717.84 88.7601 716.32 74.3001H731.97C732.91 80.4101 737.16 85.0001 745.62 85.0001C752.68 85.0001 757.03 82.4101 757.03 77.8201C757.03 73.2301 752.21 71.3601 746.68 70.0601L737.27 68.0601C725.38 65.6001 717.51 60.6501 717.51 49.1201C717.51 37.5901 729.75 30.3101 743.38 30.3101C757.01 30.3101 769.03 36.4201 771.25 51.0101H756.08H756.09Z" fill="#29293D"/>
</g>
<defs>
<clipPath id="clip0_6279_510">
<rect width="773" height="120" fill="white"/>
</clipPath>
</defs>
</svg>
